<?xml version="1.0" standalone="no"?>
<!DOCTYPE svg PUBLIC "-//W3C//DTD SVG 20010904//EN"
 "http://www.w3.org/TR/2001/REC-SVG-20010904/DTD/svg10.dtd">
<svg version="1.0" xmlns="http://www.w3.org/2000/svg"
 width="700.000000pt" height="700.000000pt" viewBox="0 0 700.000000 700.000000"
 preserveAspectRatio="xMidYMid meet">
<metadata>
Created by potrace 1.11, written by Peter Selinger 2001-2013
</metadata>
<g transform="translate(0.000000,700.000000) scale(0.100000,-0.100000)"
fill="#000000" stroke="none">
<path d="M3238 6723 c-75 -153 -223 -453 -329 -668 -105 -214 -242 -493 -304
-620 -62 -126 -186 -378 -275 -560 -381 -774 -479 -973 -595 -1210 -67 -137
-189 -385 -270 -550 -81 -165 -207 -421 -280 -570 -274 -557 -427 -870 -585
-1190 -244 -495 -464 -944 -536 -1092 -59 -121 -64 -137 -64 -197 l0 -66 3500
0 3500 0 0 102 0 101 -69 141 c-38 78 -145 296 -239 486 -93 190 -226 460
-294 600 -69 140 -194 395 -278 565 -84 171 -208 423 -275 560 -68 138 -212
430 -320 650 -109 220 -230 468 -270 550 -40 83 -164 335 -275 560 -111 226
-255 518 -320 650 -119 243 -291 594 -548 1115 -77 157 -210 428 -295 603
l-156 317 -144 0 -143 0 -136 -277z m378 -894 c53 -107 145 -293 204 -414 59
-121 184 -375 277 -565 366 -742 461 -935 596 -1210 221 -450 416 -847 527
-1075 56 -115 105 -214 108 -219 3 -6 -8 -1 -24 10 -16 10 -38 24 -49 31 -11
6 -92 54 -180 105 -347 205 -922 542 -963 565 -23 13 -327 191 -675 395 -348
204 -690 404 -762 446 -71 41 -136 81 -143 87 -15 14 -56 -72 658 1380 94 193
206 420 248 506 42 86 78 156 79 155 2 -1 46 -90 99 -197z m-1264 -3771 c0
-871 -1 -1589 -1 -1595 -1 -10 -165 -13 -786 -13 -432 0 -785 2 -785 5 0 6
116 244 375 770 98 198 235 477 305 620 149 305 294 599 585 1190 116 237 231
471 256 522 24 50 46 89 48 87 2 -2 4 -716 3 -1586z m3212 -190 c63 -128 191
-390 286 -583 95 -192 217 -442 272 -555 55 -113 109 -222 119 -242 l19 -38
-1812 1 c-1199 0 -1808 4 -1798 10 8 6 134 80 280 166 249 146 302 177 375
219 17 9 221 129 454 265 233 137 427 249 432 249 5 0 9 5 9 10 0 6 4 10 9 10
5 0 121 66 257 146 137 81 267 157 289 169 22 13 186 109 365 214 179 105 326
191 328 191 1 0 54 -105 116 -232z"/>
</g>
</svg>
