<?xml version="1.0" standalone="no"?>
<!DOCTYPE svg PUBLIC "-//W3C//DTD SVG 20010904//EN"
 "http://www.w3.org/TR/2001/REC-SVG-20010904/DTD/svg10.dtd">
<svg version="1.0" xmlns="http://www.w3.org/2000/svg"
 width="872.000000pt" height="872.000000pt" viewBox="0 0 872.000000 872.000000"
 preserveAspectRatio="xMidYMid meet">
<metadata>
Created by potrace 1.11, written by Peter Selinger 2001-2013
</metadata>
<g transform="translate(0.000000,872.000000) scale(0.100000,-0.100000)"
fill="#000000" stroke="none">
<path d="M4353 7389 c-16 -17 -41 -46 -58 -64 -16 -17 -70 -76 -120 -130 -82
-90 -133 -147 -205 -225 -14 -15 -63 -69 -110 -120 -47 -51 -89 -98 -95 -104
-5 -6 -53 -58 -105 -116 -52 -57 -104 -114 -115 -126 -11 -11 -56 -61 -100
-109 -44 -48 -96 -105 -115 -126 -19 -20 -67 -72 -106 -115 -40 -44 -82 -91
-95 -105 -25 -27 -170 -186 -204 -224 -11 -12 -61 -66 -111 -121 -50 -54 -113
-123 -140 -153 -62 -69 -105 -115 -152 -166 -20 -22 -73 -80 -117 -129 -44
-48 -93 -102 -110 -120 -16 -18 -68 -75 -115 -126 -126 -139 -199 -218 -256
-277 l-51 -53 4 -77 c2 -43 6 -79 8 -82 2 -2 0 -11 -5 -20 -5 -10 -5 -33 -1
-54 5 -20 6 -38 3 -41 -9 -9 -1 -180 9 -190 6 -6 9 -6 9 0 0 5 134 7 355 4
195 -3 363 -3 375 0 11 3 65 3 120 0 55 -3 110 -3 122 0 13 4 41 3 64 0 22 -4
49 -3 59 0 11 4 35 4 54 0 20 -3 46 -4 59 -1 12 3 67 4 122 1 55 -3 110 -3
122 0 13 4 41 3 64 0 22 -4 49 -3 59 0 11 4 36 3 57 0 69 -13 70 -9 70 209 0
106 -3 195 -6 198 -3 3 -1 13 4 23 6 11 5 23 -3 34 -11 14 -64 16 -529 18
l-517 3 57 61 c52 56 87 94 267 293 33 36 78 85 101 109 23 23 39 42 37 42 -3
0 8 13 24 29 23 23 142 152 218 235 21 24 172 189 215 236 14 15 63 69 110
121 47 51 94 103 105 115 11 12 54 59 96 105 83 91 82 89 212 231 48 52 95
105 105 116 10 11 52 58 94 104 43 45 93 100 112 122 l34 39 15 -34 c8 -19 45
-119 82 -224 38 -104 77 -214 87 -242 11 -29 19 -55 18 -58 0 -3 6 -18 15 -35
8 -16 17 -37 18 -47 4 -18 11 -39 27 -78 4 -11 22 -58 38 -105 84 -235 214
-597 222 -615 11 -27 65 -178 85 -240 9 -27 22 -63 30 -80 7 -16 22 -57 33
-90 44 -132 203 -571 212 -587 6 -10 10 -27 10 -37 0 -11 5 -23 10 -26 6 -3
10 -14 10 -24 0 -10 7 -32 16 -50 9 -17 17 -38 18 -46 1 -8 5 -18 9 -21 4 -4
7 -14 7 -22 0 -8 6 -28 14 -45 7 -18 18 -45 24 -62 56 -161 118 -332 139 -385
14 -36 27 -74 29 -85 2 -11 8 -29 13 -40 9 -18 84 -222 87 -235 0 -3 6 -18 12
-33 7 -16 12 -33 12 -38 0 -5 4 -17 10 -27 5 -9 25 -62 44 -117 52 -150 120
-339 156 -435 18 -47 38 -103 45 -125 7 -22 32 -92 55 -155 23 -63 51 -142 62
-175 11 -33 26 -73 33 -90 27 -63 65 -178 61 -182 -2 -2 -117 -6 -255 -8 -138
-2 -256 -7 -261 -10 -6 -3 -10 -1 -10 5 0 6 -5 8 -11 4 -6 -3 -115 -8 -243
-10 -127 -2 -323 -6 -436 -8 -113 -3 -223 -5 -245 -5 l-40 -1 2 -132 c1 -73 4
-181 5 -240 l3 -107 275 5 c151 3 356 7 455 10 213 5 188 4 250 3 28 -1 52 0
55 1 3 0 129 3 280 6 151 2 349 6 440 8 91 3 192 5 226 5 l60 1 -2 83 c-2 77
-4 162 -4 215 0 13 5 20 10 17 13 -8 12 22 -3 65 -7 19 -12 50 -12 68 0 19 -4
32 -12 32 -12 0 -31 26 -31 43 -1 4 -10 33 -22 65 -12 31 -23 62 -25 67 -1 6
-5 19 -9 30 -16 42 -19 50 -22 60 -3 11 -43 121 -123 340 -29 77 -54 151 -57
165 -3 13 -9 29 -13 35 -5 5 -14 28 -20 50 -7 22 -16 49 -21 60 -4 11 -22 58
-38 105 -17 47 -72 200 -122 340 -50 140 -96 269 -103 285 -6 17 -12 32 -12
35 0 3 -3 10 -6 15 -4 6 -12 28 -18 50 -7 22 -16 49 -21 60 -10 24 -44 119
-72 200 -11 33 -26 74 -34 92 -8 17 -14 34 -14 37 0 4 -63 180 -196 551 -28
77 -33 93 -34 100 0 3 -6 18 -14 34 -8 15 -17 40 -20 53 -2 14 -9 34 -15 44
-5 11 -22 53 -36 94 -45 130 -175 494 -182 510 -3 8 -7 18 -8 23 -2 4 -4 9 -5
12 -1 3 -3 8 -5 13 -2 7 -6 18 -28 77 -7 17 -12 33 -13 38 -1 4 -3 9 -4 12 -1
3 -3 8 -5 13 -1 4 -7 20 -13 35 -7 16 -12 34 -12 41 0 6 -4 16 -8 22 -5 5 -15
29 -22 54 -8 25 -17 50 -21 55 -4 6 -10 22 -13 35 -2 14 -16 53 -30 88 -13 34
-25 64 -25 65 0 1 -2 9 -5 17 -3 8 -17 49 -31 90 -15 41 -29 82 -32 90 -3 8
-7 20 -9 25 -3 9 -38 106 -59 160 -28 77 -48 131 -75 210 -17 50 -35 99 -40
110 -4 11 -13 34 -18 50 -48 136 -115 324 -122 340 -23 54 -33 99 -21 103 19
6 12 26 -19 55 -16 16 -30 32 -30 37 0 5 -6 10 -14 12 -13 3 -81 63 -229 201
-22 20 -42 37 -44 37 -1 0 -15 -14 -30 -31z"/>
</g>
</svg>
