<?xml version="1.0" standalone="no"?>
<!DOCTYPE svg PUBLIC "-//W3C//DTD SVG 20010904//EN"
 "http://www.w3.org/TR/2001/REC-SVG-20010904/DTD/svg10.dtd">
<svg version="1.0" xmlns="http://www.w3.org/2000/svg"
 width="700.000000pt" height="700.000000pt" viewBox="0 0 700.000000 700.000000"
 preserveAspectRatio="xMidYMid meet">
<metadata>
Created by potrace 1.11, written by Peter Selinger 2001-2013
</metadata>
<g transform="translate(0.000000,700.000000) scale(0.100000,-0.100000)"
fill="#000000" stroke="none">
<path d="M3104 6952 c-12 -26 -68 -150 -124 -277 -56 -126 -113 -252 -125
-280 -13 -27 -62 -138 -110 -245 -94 -210 -127 -282 -155 -345 -10 -22 -36
-80 -58 -130 -22 -49 -54 -120 -71 -158 -17 -37 -31 -69 -31 -72 0 -2 -16 -39
-36 -82 -20 -43 -71 -157 -114 -253 -43 -96 -89 -200 -103 -230 -14 -30 -44
-98 -67 -150 -23 -52 -50 -113 -60 -135 -21 -47 -150 -335 -297 -665 -58 -129
-116 -260 -130 -290 -14 -30 -33 -73 -43 -95 -9 -22 -27 -60 -38 -85 -11 -25
-29 -65 -40 -90 -29 -66 -230 -516 -259 -580 -14 -30 -42 -93 -63 -140 -20
-47 -104 -233 -185 -415 -81 -181 -157 -350 -168 -375 -10 -25 -31 -70 -44
-100 -14 -30 -61 -136 -105 -235 -44 -99 -89 -200 -100 -225 -11 -25 -31 -67
-43 -95 -13 -27 -71 -158 -130 -290 -266 -594 -405 -908 -405 -911 0 -2 1575
-4 3500 -4 3407 0 3500 0 3500 19 0 17 -15 52 -87 211 -14 30 -41 91 -60 135
-20 44 -46 104 -59 133 -13 28 -35 76 -48 105 -13 28 -48 108 -79 177 -30 69
-66 150 -80 180 -14 30 -81 181 -150 335 -69 154 -146 327 -172 385 -26 58
-56 125 -67 150 -29 67 -42 96 -87 193 -23 49 -41 90 -41 92 0 3 -14 35 -31
72 -31 68 -125 279 -444 993 -92 206 -183 408 -201 448 -19 41 -34 75 -34 78
0 2 -16 39 -36 81 -20 43 -51 112 -69 154 -18 41 -44 100 -58 130 -14 30 -52
115 -85 189 -33 74 -71 160 -85 190 -14 30 -53 118 -87 195 -34 77 -73 165
-87 195 -14 30 -60 134 -103 230 -82 184 -248 557 -279 625 -37 81 -355 793
-393 880 -22 50 -52 117 -67 150 -15 33 -50 108 -76 168 l-48 107 -381 0 -381
0 -21 -48z m446 -559 c24 -54 55 -125 70 -158 15 -33 83 -184 150 -335 68
-151 138 -308 156 -348 19 -41 34 -75 34 -77 0 -3 44 -101 90 -200 10 -22 54
-121 98 -220 44 -99 96 -216 117 -260 20 -44 48 -106 61 -138 14 -32 38 -88
55 -125 17 -37 65 -143 106 -237 42 -93 89 -199 105 -235 17 -36 48 -105 70
-155 22 -49 51 -115 65 -145 14 -30 41 -91 60 -135 20 -44 46 -102 58 -130 30
-67 63 -141 86 -193 84 -187 276 -618 296 -662 14 -30 41 -91 60 -135 56 -127
75 -169 81 -179 3 -6 -10 0 -29 11 -19 12 -49 29 -66 40 -18 10 -106 61 -195
114 -313 184 -923 542 -966 566 -24 13 -260 152 -525 307 -786 461 -1070 628
-1107 648 -68 38 -69 28 18 224 138 311 333 747 362 809 15 33 42 94 60 135
18 41 50 112 71 158 22 46 39 85 39 87 0 4 31 75 76 170 46 99 175 390 178
400 1 6 20 48 42 95 22 47 71 156 109 243 38 86 70 157 71 157 1 0 21 -44 44
-97z m-1197 -4165 c-1 -920 -2 -1676 -2 -1680 -1 -8 -1501 -12 -1501 -4 0 6
49 119 60 139 6 10 19 39 29 65 10 26 34 81 54 122 19 41 42 93 52 115 23 52
192 428 215 480 10 22 46 103 80 180 61 139 77 174 130 290 15 33 52 116 83
185 45 103 134 301 337 755 10 22 57 128 105 235 48 107 95 213 105 235 10 22
37 83 60 135 23 52 51 115 62 140 11 25 28 63 38 85 59 130 89 195 92 195 2 0
2 -753 1 -1672z m3124 -145 c7 -16 21 -48 31 -73 10 -25 35 -79 54 -120 19
-41 50 -109 68 -150 18 -41 43 -97 56 -125 95 -212 284 -636 316 -709 21 -49
47 -107 57 -130 81 -178 102 -228 99 -232 -3 -2 -761 -3 -1686 -2 l-1680 3
195 115 c194 114 261 153 318 186 17 9 221 129 454 265 233 137 427 249 432
249 5 0 9 5 9 10 0 6 4 10 9 10 5 0 121 66 257 146 137 81 260 153 274 160 14
8 180 106 370 218 190 112 347 204 350 205 3 1 11 -11 17 -26z"/>
</g>
</svg>
